<svg width="27" height="27" viewBox="0 0 27 27" fill="none" xmlns="http://www.w3.org/2000/svg">
<path d="M23.5705 12.8227L20.6174 11.9788C19.2875 11.6039 18.076 10.8939 17.0989 9.91689C16.122 8.93983 15.412 7.72841 15.0371 6.39852L14.1932 3.44535C14.1507 3.34203 14.0785 3.25366 13.9857 3.19147C13.893 3.12927 13.7838 3.09607 13.6721 3.09607C13.5603 3.09607 13.4511 3.12927 13.3584 3.19147C13.2656 3.25366 13.1934 3.34203 13.151 3.44535L12.3071 6.39852C11.9321 7.72841 11.2222 8.93983 10.2452 9.91689C9.26812 10.8939 8.0567 11.6039 6.72682 11.9788L3.77365 12.8227C3.66026 12.8549 3.56046 12.9232 3.48939 13.0172C3.41834 13.1113 3.37988 13.2259 3.37988 13.3438C3.37988 13.4616 3.41834 13.5763 3.48939 13.6703C3.56046 13.7644 3.66026 13.8327 3.77365 13.8648L6.72682 14.7088C8.0567 15.0837 9.26812 15.7937 10.2452 16.7707C11.2222 17.7477 11.9321 18.9592 12.3071 20.289L13.151 23.2422C13.1832 23.3556 13.2515 23.4554 13.3455 23.5264C13.4395 23.5975 13.5542 23.636 13.6721 23.636C13.7899 23.636 13.9046 23.5975 13.9986 23.5264C14.0927 23.4554 14.1609 23.3556 14.1932 23.2422L15.0371 20.289C15.412 18.9592 16.122 17.7477 17.0989 16.7707C18.076 15.7937 19.2875 15.0837 20.6174 14.7088L23.5705 13.8648C23.6839 13.8327 23.7836 13.7644 23.8547 13.6703C23.9258 13.5763 23.9642 13.4616 23.9642 13.3438C23.9642 13.2259 23.9258 13.1113 23.8547 13.0172C23.7836 12.9232 23.6839 12.8549 23.5705 12.8227Z" fill="white"/>
</svg>
